<svg width="25" height="26" viewBox="0 0 25 26" fill="none" xmlns="http://www.w3.org/2000/svg">
<path fill-rule="evenodd" clip-rule="evenodd" d="M1.04169 3.45609C1.04169 2.94831 1.2434 2.46133 1.60246 2.10227C1.96151 1.74322 2.44849 1.54151 2.95627 1.54151H22.0417C22.2933 1.5411 22.5426 1.59032 22.7752 1.68637C23.0078 1.78241 23.2191 1.92339 23.3972 2.10123C23.5752 2.27907 23.7164 2.49028 23.8127 2.72277C23.909 2.95525 23.9585 3.20445 23.9584 3.45609V22.5415C23.9586 22.7932 23.9093 23.0425 23.8131 23.2751C23.717 23.5077 23.5759 23.719 23.398 23.897C23.22 24.0751 23.0088 24.2162 22.7762 24.3125C22.5437 24.4088 22.2944 24.4583 22.0427 24.4582H2.95627C2.70476 24.4582 2.45571 24.4086 2.22335 24.3123C1.99099 24.2161 1.77989 24.0749 1.60209 23.897C1.42429 23.7191 1.28328 23.508 1.18713 23.2755C1.09097 23.0431 1.04155 22.7941 1.04169 22.5425V3.45609ZM10.1125 10.279H13.2156V11.8373C13.6636 10.9415 14.8094 10.1353 16.5313 10.1353C19.8323 10.1353 20.6146 11.9196 20.6146 15.1936V21.2582H17.274V15.9394C17.274 14.0748 16.8261 13.0228 15.6886 13.0228C14.1104 13.0228 13.4542 14.1571 13.4542 15.9394V21.2582H10.1125V10.279ZM4.38335 21.1155H7.72502V10.1353H4.38335V21.1144V21.1155ZM8.20315 6.55401C8.20945 6.84012 8.15853 7.12462 8.05339 7.39079C7.94826 7.65697 7.79101 7.89946 7.59089 8.10404C7.39076 8.30862 7.15179 8.47117 6.88799 8.58214C6.6242 8.69311 6.3409 8.75027 6.05471 8.75027C5.76852 8.75027 5.48522 8.69311 5.22142 8.58214C4.95763 8.47117 4.71865 8.30862 4.51853 8.10404C4.3184 7.89946 4.16116 7.65697 4.05602 7.39079C3.95088 7.12462 3.89997 6.84012 3.90627 6.55401C3.91864 5.9924 4.15042 5.45796 4.55198 5.06514C4.95355 4.67232 5.49296 4.45236 6.05471 4.45236C6.61645 4.45236 7.15587 4.67232 7.55743 5.06514C7.95899 5.45796 8.19078 5.9924 8.20315 6.55401Z" fill="#F2B43B"/>
</svg>
