<svg width="25" height="26" viewBox="0 0 25 26" fill="none" xmlns="http://www.w3.org/2000/svg">
<path d="M24.6281 5.64256C23.7583 6.02798 22.8239 6.2884 21.8416 6.40611C22.8552 5.79964 23.6135 4.84513 23.975 3.72069C23.0227 4.2863 21.9805 4.68443 20.8937 4.89777C20.1629 4.11742 19.1948 3.6002 18.1399 3.42639C17.085 3.25259 16.0022 3.43193 15.0596 3.93658C14.117 4.44123 13.3674 5.24294 12.9272 6.21726C12.487 7.19157 12.3807 8.28397 12.625 9.32486C10.6955 9.22798 8.80792 8.72647 7.08479 7.85288C5.36166 6.97929 3.84147 5.75315 2.62289 4.25402C2.20622 4.97277 1.96664 5.80611 1.96664 6.69361C1.96617 7.49256 2.16292 8.27928 2.53943 8.98395C2.91593 9.68863 3.46056 10.2895 4.12497 10.7332C3.35443 10.7087 2.60088 10.5005 1.92705 10.1259V10.1884C1.92698 11.309 2.31459 12.395 3.02412 13.2624C3.73365 14.1297 4.7214 14.7248 5.81976 14.9467C5.10495 15.1402 4.35553 15.1687 3.6281 15.0301C3.93799 15.9942 4.54163 16.8374 5.35452 17.4414C6.16741 18.0455 7.14884 18.3803 8.16143 18.3988C6.44251 19.7482 4.31965 20.4802 2.13435 20.4769C1.74724 20.477 1.36047 20.4544 0.976013 20.4092C3.19422 21.8355 5.77637 22.5924 8.41351 22.5894C17.3406 22.5894 22.2208 15.1957 22.2208 8.78319C22.2208 8.57486 22.2156 8.36444 22.2062 8.15611C23.1555 7.46962 23.9749 6.61954 24.626 5.64569L24.6281 5.64256Z" fill="#F2B43B"/>
</svg>
