<svg width="1513" height="731" viewBox="0 0 1513 731" fill="none" xmlns="http://www.w3.org/2000/svg">
<path d="M1 346.5H195C206.046 346.5 215 355.454 215 366.5V710.5C215 721.546 223.954 730.5 235 730.5H685.5C696.546 730.5 705.5 721.546 705.5 710.5V296C705.5 284.954 714.454 276 725.5 276H816C827.046 276 836 267.046 836 256V20.5C836 9.45431 844.954 0.5 856 0.5H1116.5C1127.55 0.5 1136.5 9.4543 1136.5 20.5V326.5C1136.5 337.546 1145.45 346.5 1156.5 346.5H1509.5" stroke="#DADADA" stroke-opacity="0.08" stroke-linecap="round"/>
<g filter="url(#filter0_d_27_5)">
<circle cx="73" cy="347" r="19" fill="#282828"/>
</g>
<g filter="url(#filter1_d_27_5)">
<circle cx="837.5" cy="99.5" r="13.5" fill="#282828"/>
</g>
<g filter="url(#filter2_d_27_5)">
<circle cx="1476.5" cy="341.5" r="16.5" fill="#282828"/>
</g>
<defs>
<filter id="filter0_d_27_5" x="34" y="308" width="78" height="78" filterUnits="userSpaceOnUse" color-interpolation-filters="sRGB">
<feFlood flood-opacity="0" result="BackgroundImageFix"/>
<feColorMatrix in="SourceAlpha" type="matrix" values="0 0 0 0 0 0 0 0 0 0 0 0 0 0 0 0 0 0 127 0" result="hardAlpha"/>
<feOffset/>
<feGaussianBlur stdDeviation="10"/>
<feComposite in2="hardAlpha" operator="out"/>
<feColorMatrix type="matrix" values="0 0 0 0 1 0 0 0 0 0.780392 0 0 0 0 0 0 0 0 1 0"/>
<feBlend mode="normal" in2="BackgroundImageFix" result="effect1_dropShadow_27_5"/>
<feBlend mode="normal" in="SourceGraphic" in2="effect1_dropShadow_27_5" result="shape"/>
</filter>
<filter id="filter1_d_27_5" x="804" y="66" width="67" height="67" filterUnits="userSpaceOnUse" color-interpolation-filters="sRGB">
<feFlood flood-opacity="0" result="BackgroundImageFix"/>
<feColorMatrix in="SourceAlpha" type="matrix" values="0 0 0 0 0 0 0 0 0 0 0 0 0 0 0 0 0 0 127 0" result="hardAlpha"/>
<feOffset/>
<feGaussianBlur stdDeviation="10"/>
<feComposite in2="hardAlpha" operator="out"/>
<feColorMatrix type="matrix" values="0 0 0 0 1 0 0 0 0 0.780392 0 0 0 0 0 0 0 0 1 0"/>
<feBlend mode="normal" in2="BackgroundImageFix" result="effect1_dropShadow_27_5"/>
<feBlend mode="normal" in="SourceGraphic" in2="effect1_dropShadow_27_5" result="shape"/>
</filter>
<filter id="filter2_d_27_5" x="1440" y="305" width="73" height="73" filterUnits="userSpaceOnUse" color-interpolation-filters="sRGB">
<feFlood flood-opacity="0" result="BackgroundImageFix"/>
<feColorMatrix in="SourceAlpha" type="matrix" values="0 0 0 0 0 0 0 0 0 0 0 0 0 0 0 0 0 0 127 0" result="hardAlpha"/>
<feOffset/>
<feGaussianBlur stdDeviation="10"/>
<feComposite in2="hardAlpha" operator="out"/>
<feColorMatrix type="matrix" values="0 0 0 0 1 0 0 0 0 0.780392 0 0 0 0 0 0 0 0 1 0"/>
<feBlend mode="normal" in2="BackgroundImageFix" result="effect1_dropShadow_27_5"/>
<feBlend mode="normal" in="SourceGraphic" in2="effect1_dropShadow_27_5" result="shape"/>
</filter>
</defs>
</svg>
