<svg width="25" height="26" viewBox="0 0 25 26" fill="none" xmlns="http://www.w3.org/2000/svg">
<path d="M12.501 2.58545C6.74893 2.58545 2.08539 7.24899 2.08539 13.0011C2.08539 18.199 5.89372 22.5073 10.8739 23.2917V16.0125H8.2281V13.0011H10.8739V10.7063C10.8739 8.09378 12.4291 6.65316 14.8073 6.65316C15.9468 6.65316 17.1406 6.85628 17.1406 6.85628V9.41774H15.8239C14.5323 9.41774 14.1281 10.2219 14.1281 11.0459V12.999H17.0146L16.5531 16.0104H14.1281V23.2896C19.1083 22.5094 22.9166 18.2 22.9166 13.0011C22.9166 7.24899 18.2531 2.58545 12.501 2.58545V2.58545Z" fill="#F2B43B"/>
</svg>
