<svg width="388" height="120" viewBox="0 0 388 120" fill="none" xmlns="http://www.w3.org/2000/svg">
<path d="M2 76.8593C2 76.8593 17.2978 70.8596 27.6558 51.68C38.0138 32.5003 47.338 20.6213 55.9438 20.6213C64.5496 20.6213 70.4388 27.373 82.7664 50.792C95.0941 74.211 98.0668 83.3761 105.333 87.0659C112.599 90.7557 126.987 83.7273 140.943 73.4245C154.899 63.1217 165.959 47.0367 182.876 71.4368C199.793 95.8368 209.065 109.996 209.065 109.996C209.065 109.996 224.565 133.229 241.486 101.196C258.407 69.1633 270.606 59.683 278.911 62.6036C287.215 65.5242 293.842 71.9941 302.028 80.9595C310.214 89.9249 326.243 113.529 342.416 98.3389C358.589 83.1489 369.7 47.6236 386 47.6236" stroke="white" stroke-width="3" stroke-linecap="round" stroke-dasharray="11"/>
<path d="M2 103.078C2 103.078 15.6153 98.9678 26.8149 78.3096C38.0145 57.6514 46.273 50.0767 55.0461 46.7435C63.8192 43.4102 72.7656 54.0776 81.3031 70.7899C89.8405 87.5021 99.5995 99.6176 99.5995 99.6176C99.5995 99.6176 111.658 115.151 121.443 101.787C131.227 88.4235 144.785 56.3739 150.367 47.61C155.949 38.8461 166.268 19.6254 180.785 40.3794C195.301 61.1334 207.54 78.9967 207.54 78.9967C207.54 78.9967 223.138 99.0041 236.399 75.6654C249.659 52.3267 258.097 34.1309 263.036 28.2978C267.975 22.4647 276.688 9.46559 292.315 26.4075C307.941 43.3495 307.144 42.6235 321.132 56.7067C335.121 70.7899 354.687 36.3408 354.687 36.3408C354.687 36.3408 375.06 0.954723 386 2.03182" stroke="#F2B43B" stroke-width="4" stroke-linecap="round"/>
</svg>
