<svg width="30" height="30" viewBox="0 0 30 30" fill="none" xmlns="http://www.w3.org/2000/svg">
<g clip-path="url(#clip0_73_497)">
<path d="M18.75 5.625C19.2473 5.625 19.7242 5.82254 20.0758 6.17417C20.4275 6.52581 20.625 7.00272 20.625 7.5V22.5C20.625 22.9973 20.4275 23.4742 20.0758 23.8258C19.7242 24.1775 19.2473 24.375 18.75 24.375H11.25C10.7527 24.375 10.2758 24.1775 9.92418 23.8258C9.57254 23.4742 9.375 22.9973 9.375 22.5V7.5C9.375 7.00272 9.57254 6.52581 9.92418 6.17417C10.2758 5.82254 10.7527 5.625 11.25 5.625H18.75ZM11.25 3.75C10.2554 3.75 9.30161 4.14509 8.59835 4.84835C7.89509 5.55161 7.5 6.50544 7.5 7.5V22.5C7.5 23.4946 7.89509 24.4484 8.59835 25.1516C9.30161 25.8549 10.2554 26.25 11.25 26.25H18.75C19.7446 26.25 20.6984 25.8549 21.4016 25.1516C22.1049 24.4484 22.5 23.4946 22.5 22.5V7.5C22.5 6.50544 22.1049 5.55161 21.4016 4.84835C20.6984 4.14509 19.7446 3.75 18.75 3.75H11.25Z" fill="white"/>
<path d="M15 22.4998C15.4973 22.4998 15.9742 22.3023 16.3258 21.9506C16.6774 21.599 16.875 21.1221 16.875 20.6248C16.875 20.1275 16.6774 19.6506 16.3258 19.299C15.9742 18.9474 15.4973 18.7498 15 18.7498C14.5027 18.7498 14.0258 18.9474 13.6742 19.299C13.3225 19.6506 13.125 20.1275 13.125 20.6248C13.125 21.1221 13.3225 21.599 13.6742 21.9506C14.0258 22.3023 14.5027 22.4998 15 22.4998ZM2.99811 7.60857C3.10696 7.66616 3.2034 7.74464 3.28192 7.83952C3.36044 7.93439 3.41949 8.04381 3.45571 8.16152C3.49192 8.27922 3.5046 8.40291 3.493 8.52552C3.4814 8.64812 3.44576 8.76724 3.38811 8.87607C2.39107 10.7631 1.87155 12.8656 1.87498 14.9998C1.87498 17.2123 2.42248 19.2973 3.38811 21.1236C3.50447 21.3434 3.52876 21.6004 3.45562 21.8381C3.38248 22.0758 3.21791 22.2747 2.99811 22.3911C2.77831 22.5074 2.52129 22.5317 2.28359 22.4586C2.04589 22.3854 1.84697 22.2209 1.73061 22.0011C0.590654 19.8437 -0.00353217 17.4399 -1.49937e-05 14.9998C-1.49937e-05 12.4742 0.626235 10.0892 1.73061 7.99857C1.78821 7.88971 1.86668 7.79327 1.96156 7.71476C2.05644 7.63624 2.16585 7.57719 2.28356 7.54097C2.40127 7.50475 2.52496 7.49208 2.64756 7.50368C2.77016 7.51528 2.88928 7.55092 2.99811 7.60857ZM27.0019 7.60857C27.1107 7.55092 27.2298 7.51528 27.3524 7.50368C27.475 7.49208 27.5987 7.50475 27.7164 7.54097C27.8341 7.57719 27.9435 7.63624 28.0384 7.71476C28.1333 7.79327 28.2118 7.88971 28.2694 7.99857C29.4094 10.1559 30.0036 12.5597 30 14.9998C30.0036 17.4399 29.4094 19.8437 28.2694 22.0011C28.153 22.2209 27.9541 22.3854 27.7164 22.4586C27.4787 22.5317 27.2217 22.5074 27.0019 22.3911C26.7821 22.2747 26.6175 22.0758 26.5444 21.8381C26.4712 21.6004 26.4955 21.3434 26.6119 21.1236C27.6089 19.2366 28.1284 17.134 28.125 14.9998C28.125 12.7873 27.5775 10.7023 26.6119 8.87607C26.5542 8.76724 26.5186 8.64812 26.507 8.52552C26.4954 8.40291 26.508 8.27922 26.5443 8.16152C26.5805 8.04381 26.6395 7.93439 26.718 7.83952C26.7966 7.74464 26.893 7.66616 27.0019 7.60857ZM5.73186 10.3761C5.84665 10.4208 5.95148 10.4878 6.04038 10.5731C6.12928 10.6584 6.20049 10.7604 6.24994 10.8732C6.2994 10.986 6.32613 11.1075 6.3286 11.2307C6.33107 11.3539 6.30924 11.4763 6.26436 11.5911C5.84049 12.6775 5.62364 13.8336 5.62498 14.9998C5.62498 16.2036 5.84998 17.3529 6.26248 18.4086C6.31481 18.5244 6.34301 18.6498 6.34538 18.7769C6.34776 18.904 6.32424 19.0303 6.27628 19.148C6.22832 19.2658 6.15691 19.3725 6.06639 19.4618C5.97587 19.5511 5.86814 19.621 5.74974 19.6674C5.63134 19.7137 5.50476 19.7355 5.37768 19.7314C5.25061 19.7273 5.1257 19.6973 5.01055 19.6434C4.8954 19.5895 4.79242 19.5127 4.70787 19.4178C4.62332 19.3228 4.55897 19.2117 4.51873 19.0911C4.00961 17.7872 3.74888 16.3996 3.74998 14.9998C3.74998 13.5579 4.02186 12.1779 4.51873 10.9086C4.60914 10.6772 4.78767 10.4912 5.01513 10.3913C5.24258 10.2915 5.50036 10.286 5.73186 10.3761ZM24.2681 10.3761C24.3828 10.3312 24.5053 10.3094 24.6285 10.3118C24.7517 10.3143 24.8731 10.341 24.986 10.3905C25.0988 10.4399 25.2008 10.5111 25.2861 10.6C25.3714 10.6889 25.4384 10.7938 25.4831 10.9086C25.9781 12.1779 26.25 13.5579 26.25 14.9998C26.25 16.4417 25.9781 17.8217 25.4812 19.0911C25.3823 19.3101 25.203 19.4828 24.9804 19.5735C24.7578 19.6642 24.5089 19.6659 24.2851 19.5783C24.0613 19.4907 23.8796 19.3204 23.7777 19.1028C23.6758 18.8851 23.6614 18.6366 23.7375 18.4086C24.15 17.3529 24.375 16.2036 24.375 14.9998C24.375 13.7961 24.15 12.6467 23.7375 11.5911C23.6467 11.3596 23.6517 11.1015 23.7512 10.8737C23.8507 10.6458 24.0366 10.4668 24.2681 10.3761Z" fill="white"/>
</g>
<defs>
<clipPath id="clip0_73_497">
<rect width="30" height="30" fill="white"/>
</clipPath>
</defs>
</svg>
