<svg width="25" height="295" viewBox="0 0 25 295" fill="none" xmlns="http://www.w3.org/2000/svg">
<g id="Social Section">
<path id="Vector 1" d="M12 2V144.5" stroke="#BABFC7" stroke-opacity="0.12" stroke-width="3" stroke-linecap="round"/>
<g id="Socials">
<g id="Social">
<path id="Vector" fill-rule="evenodd" clip-rule="evenodd" d="M1.04169 222.456C1.04169 221.948 1.2434 221.461 1.60246 221.102C1.96151 220.743 2.44849 220.542 2.95627 220.542H22.0417C22.2933 220.541 22.5426 220.59 22.7752 220.686C23.0078 220.782 23.2191 220.923 23.3972 221.101C23.5752 221.279 23.7164 221.49 23.8127 221.723C23.909 221.955 23.9585 222.204 23.9584 222.456V241.542C23.9586 241.793 23.9093 242.042 23.8131 242.275C23.717 242.508 23.5759 242.719 23.398 242.897C23.22 243.075 23.0088 243.216 22.7762 243.313C22.5437 243.409 22.2944 243.458 22.0427 243.458H2.95627C2.70476 243.458 2.45571 243.409 2.22335 243.312C1.99099 243.216 1.77989 243.075 1.60209 242.897C1.42429 242.719 1.28328 242.508 1.18713 242.276C1.09097 242.043 1.04155 241.794 1.04169 241.543V222.456ZM10.1125 229.279H13.2156V230.837C13.6636 229.942 14.8094 229.135 16.5313 229.135C19.8323 229.135 20.6146 230.92 20.6146 234.194V240.258H17.274V234.939C17.274 233.075 16.8261 232.023 15.6886 232.023C14.1104 232.023 13.4542 233.157 13.4542 234.939V240.258H10.1125V229.279ZM4.38335 240.115H7.72502V229.135H4.38335V240.114V240.115ZM8.20315 225.554C8.20945 225.84 8.15853 226.125 8.05339 226.391C7.94826 226.657 7.79101 226.899 7.59089 227.104C7.39076 227.309 7.15179 227.471 6.88799 227.582C6.6242 227.693 6.34089 227.75 6.05471 227.75C5.76852 227.75 5.48522 227.693 5.22142 227.582C4.95763 227.471 4.71865 227.309 4.51853 227.104C4.3184 226.899 4.16116 226.657 4.05602 226.391C3.95088 226.125 3.89997 225.84 3.90627 225.554C3.91864 224.992 4.15042 224.458 4.55198 224.065C4.95355 223.672 5.49296 223.452 6.05471 223.452C6.61645 223.452 7.15587 223.672 7.55743 224.065C7.95899 224.458 8.19078 224.992 8.20315 225.554V225.554Z" fill="#F2B43B"/>
</g>
<g id="Social_2">
<path id="Vector_2" d="M12.501 171.585C6.74893 171.585 2.08539 176.249 2.08539 182.001C2.08539 187.199 5.89372 191.507 10.8739 192.292V185.013H8.2281V182.001H10.8739V179.706C10.8739 177.094 12.4291 175.653 14.8073 175.653C15.9468 175.653 17.1406 175.856 17.1406 175.856V178.418H15.8239C14.5323 178.418 14.1281 179.222 14.1281 180.046V181.999H17.0146L16.5531 185.01H14.1281V192.29C19.1083 191.509 22.9166 187.2 22.9166 182.001C22.9166 176.249 18.2531 171.585 12.501 171.585V171.585Z" fill="#F2B43B"/>
</g>
<g id="Soical">
<path id="Vector_3" d="M24.6281 274.643C23.7583 275.028 22.8239 275.288 21.8416 275.406C22.8552 274.8 23.6135 273.845 23.975 272.721C23.0227 273.286 21.9805 273.684 20.8937 273.898C20.1629 273.117 19.1948 272.6 18.1399 272.426C17.085 272.253 16.0022 272.432 15.0596 272.937C14.117 273.441 13.3674 274.243 12.9272 275.217C12.487 276.192 12.3807 277.284 12.625 278.325C10.6955 278.228 8.80792 277.726 7.08479 276.853C5.36166 275.979 3.84147 274.753 2.62289 273.254C2.20622 273.973 1.96664 274.806 1.96664 275.694C1.96617 276.493 2.16292 277.279 2.53943 277.984C2.91593 278.689 3.46056 279.289 4.12497 279.733C3.35443 279.709 2.60088 279.5 1.92705 279.126V279.188C1.92698 280.309 2.31459 281.395 3.02412 282.262C3.73365 283.13 4.7214 283.725 5.81976 283.947C5.10495 284.14 4.35553 284.169 3.6281 284.03C3.93799 284.994 4.54163 285.837 5.35452 286.441C6.16741 287.046 7.14884 287.38 8.16143 287.399C6.44251 288.748 4.31965 289.48 2.13435 289.477C1.74724 289.477 1.36047 289.454 0.976013 289.409C3.19422 290.835 5.77637 291.592 8.41351 291.589C17.3406 291.589 22.2208 284.196 22.2208 277.783C22.2208 277.575 22.2156 277.364 22.2062 277.156C23.1555 276.47 23.9749 275.62 24.626 274.646L24.6281 274.643V274.643Z" fill="#F2B43B"/>
</g>
</g>
</g>
</svg>
